/* XPM */
static char *b2f8656de94b4745f61b6881239d7caaFYpDn333Hq1FSWUQ[] = {
/* columns rows colors chars-per-pixel */
"64 64 3 1 ",
"  c #A4C263",
". c #C0D470",
"X c #E8EEAA",
/* pixels */
"................................................................",
"................................................................",
"................................................................",
"................................................................",
"................................................................",
"................................................................",
"........................  ........................  ..  ........",
"........................  ........................  ..  ........",
"......................  ............................  ..........",
"......................  ............................  ..........",
"......................  ........................................",
"......................  ........................................",
"........  ......................................................",
"........  ......................................................",
"..........  ....................................................",
"..........  ....................................................",
"..........  ........  ..........................................",
"..........  ........  ..........................................",
"..................  ............................................",
"..................  ............................................",
"..................  ..................  ..  ....................",
"..................  ..................  ..  ....................",
"........................................  ......................",
"........................................  ......................",
"................................................................",
"................................................................",
"................................................................",
"................................................................",
"................................................................",
"................................................................",
"................................................................",
"................................................................",
"................................................................",
"................................................................",
"................................................................",
"................................................................",
"................................................................",
"................................................................",
"......................................................XX..XX....",
"......................................................XX..XX....",
"........................................................XX......",
"........................................................XX......",
"..............XX................................................",
"..............XX................................................",
"............XX..................................................",
"............XX..................................................",
"......XX....XX..................................................",
"......XX....XX..................................................",
"........XX..XX..................................................",
"........XX..XX..................................................",
"........XX..........XX..........................................",
"........XX..........XX..........................................",
"........XX............XX................XX..XX..................",
"........XX............XX................XX..XX..................",
"......................XX..................XX....................",
"......................XX..................XX....................",
"......................XX........................................",
"......................XX........................................",
"................................................................",
"................................................................",
"................................................................",
"................................................................",
"................................................................",
"................................................................"
};
