/* XPM */
static char *_957e152a1da4eeba8cc16449846b0880oeHf7HBQd6CsJP3[] = {
/* columns rows colors chars-per-pixel */
"64 64 2 1 ",
"  c #B1E0BE",
". c #9BD4C3",
/* pixels */
"....................................................            ",
"....................................................            ",
"....................................................            ",
"....................................................            ",
"................................................................",
"................................................................",
"................................................................",
"................................................................",
"............................            ........................",
"............................            ........................",
"............................            ........................",
"............................            ........................",
"................................................................",
"................................................................",
"................................................................",
"................................................................",
"................................................................",
"................................................................",
"................................................................",
"................................................................",
"            ................................................    ",
"            ................................................    ",
"            ................................................    ",
"            ................................................    ",
"................................................................",
"................................................................",
"................................................................",
"................................................................",
"................................................................",
"................................................................",
"................................................................",
"................................................................",
"....................................                ............",
"....................................                ............",
"....................................                ............",
"....................................                ............",
"................................................................",
"................................................................",
"................................................................",
"................................................................",
"................        ........................................",
"................        ........................................",
"................        ........................................",
"................        ........................................",
"................................................................",
"................................................................",
"................................................................",
"................................................................",
"....................................................            ",
"....................................................            ",
"....................................................            ",
"....................................................            ",
"............................            ........................",
"............................            ........................",
"............................            ........................",
"............................            ........................",
"................................................................",
"................................................................",
"................................................................",
"................................................................",
"................................................................",
"................................................................",
"................................................................",
"................................................................"
};
