/* XPM */
static char * A_xpm[] = {
"64 64 25 1",
" 	c #C0D470",
".	c #90625D",
"+	c #DCB98A",
"@	c #78A158",
"#	c #A4C263",
"$	c #8DB15D",
"%	c #C49A6C",
"&	c #67835C",
"*	c #C58086",
"=	c #AA7959",
"-	c #F3F2C0",
";	c #E8CFA6",
">	c #F3E5C2",
",	c #754C60",
"'	c #D4C169",
")	c #B68962",
"!	c #6B4B5B",
"~	c #E8EEAA",
"{	c #B7C973",
"]	c #BB936F",
"^	c #714B65",
"/	c #AFBF75",
"(	c #D2D7A3",
"_	c #8A5F63",
":	c #AE8367",
"                            ........                            ",
"                        ....++++++++....                        ",
"                        ....++++++++....                        ",
"                    ....++++++++++++++++....                    ",
"                ....++++++++@@@@@@@@++++++++....                ",
"            ....++++++++@@@@ ###### @@@@++++++++....            ",
"            ....++++++++@@@@ ###### @@@@++++++++....  ##        ",
"        ....++++++++@@@@#$$@ ###### @$$#@@@@++++++++....        ",
"       .++++++++@@@@@   #$$@#$$$$$$#@$$#   @@@@@++++++++.       ",
"       .++++@@@@###$@   #$$@ ###### @$$#   @$###@@@@++++.       ",
"       .++++@@@@###$@   #$$@ ###### @$$#   @$###@@@@++++.       ",
"       .%@@@$@@  ##$@####$$@ ###### @$$####@$##  @@$@@@%.       ",
"        .&&#$@@  ##$@   ............@$$#   @$##  @@$#&&.        ",
"        #&&#$@@####$@   ............@$$#   @$####@@$#&&         ",
"         &&#$@@####$@   ............@$$#   @$####@@$#&&         ",
"         &&#$@@  ##$@###............@$$####@$##  @@$#&&         ",
"         &&#$@@  ##$....************....   @$##  @@$#&&         ",
"         &&#$@@####$....************....   @$####@@$#&&         ",
"         &&#$@@####$....************....   @$####@@$#&&         ",
"         &&#$@@  ##$....************....====$##  @@$#&&         ",
"         &&#$@@ ....--------------------....==== @@$#&&         ",
"         &&#====....--------------------....;;;;====#&&         ",
"         &&#====....--------------------....;;;;====#&&         ",
"        ====;;;;....--------------------....>>>>;;;;====        ",
"       =;;;;....------------,,,,--------,,,,....>>>>;;;;=       ",
"       =>>>>....------------,,,,--------,,,,....++++>>>>=       ",
"       =>>>>....------------,,,,--------,,,,....++++>>>>=       ",
"       .++++....------------,,,,--------,,,,....++++++++.       ",
"       .++++....--------------------''''''''........++++.       ",
"        ........--------------------''''''''....%%%)....        ",
"        ........--------------------''''''''....%%%)....        ",
"           ,....--------------------''''''''....%%%%!           ",
"        ....--------------------------------....====,           ",
"        ....--------------------------------....%%%%,           ",
"        ....--------------------------------....%%%%,           ",
"        ....--------------------------------....%%%%,           ",
"    ....------------------------------------....%%%%,           ",
"    ....------------------------------------....,===,           ",
"    ....------------------------------------....,===, ~~  ~~    ",
"    ....------------------------------------....,%%%, ~~  ~~    ",
"    ....;;;;------------%%%%------------;;;;....,%%%,   ~~      ",
"    ....;;;;------------%%%%------------;;;;....,%%%,   ~~      ",
"    ....;;;;------------%%%%------------;;;;....,%%%,           ",
"    ....;;;;------------%%%%------------;;;;....====,           ",
"    ....%%%%%%%%%%%%%%%%;;;;;;;;;;;;;;;;;;;;....%%%%,           ",
"    ....%%%%%%%%%%%%%%%%;;;;;;;;;;;;;;;;;;;;....%%%%,           ",
"    ....%%%%%%%%%%%%%%%%;;;;;;;;;;;;;;;;;;;;....%%%%,           ",
"    ....%%%%%%%%%%%%%%%%;;;;;;;;;;;;;;;;;;;;....%%%%,           ",
"    ....''''''''....................''''''''....,,,,            ",
"    ....''''''''....................''''''''....,{{{            ",
"    ....''''''''....................''''''''....,{{{            ",
"    ....''''''''....................''''''''....,{{{            ",
"{{{{{{{{........]]]^//((///_]::::::]........^]]]^///            ",
"{{{{{{{{........]]]^//((///_]]]]]]]]........^]]]^///            ",
"{{{{{{{{........]]]^//((///_]]]]]]]]........^]]]^///            ",
"{{{{{{{{........]]]^//((///_]::::::]........^]]]^///            ",
"    {{{{{{{{{//^]]]^//((///_]]]]]]]]_///////^]]],{{             ",
"    {{{{{{{{{{{/^^^///((///_]::::::]_////////^^^{               ",
"    {{{{{{{{{{{/^^^////////_]::::::]_////////^^^{               ",
"    {{{{{{{{{{{{{{{{{{{{{//_]]]]]]]]_//{{{{{{{{{                ",
"                         {{.%))))))%.{{                         ",
"                         {{.%%%%%%%%.{{                         ",
"                         {{.%%%%%%%%.{{                         ",
"                           {........{                           "};
