/* XPM */
static char *_223341d02eb450f9b7dc16972b21613w5tI3uwbcr115JyW[] = {
/* columns rows colors chars-per-pixel */
"64 64 10 1 ",
"  c #957A4B",
". c #90625D",
"X c #B09643",
"o c #BFA954",
"O c #A4C263",
"+ c #D4C169",
"@ c #C0D470",
"# c #E8CFA6",
"$ c #E8EEAA",
"% c #F3F2C0",
/* pixels */
"@@@@@@@@@@@@@@@@@@@@@@@@@@@@@@@@@@@@@@@@@@@@@@@@@@@@@@@@@@@@@@@@",
"@@@@@@@@@@@@@@@@@@@@@@@@@@@@@@@@@@@@@@@@@@@@@@@@@@@@@@@@@@@@@@@@",
"@@@@@@@@@@@@@@@@@@@@@@@@@@@@@@@@@@@@@@@@@@@@@@@@@@@@@@@@@@@@@@@@",
"@@@@@@@@@@@@@@@@@@@@@@@@@@@@@@@@@@@@@@@@@@@@@@@@@@@@@@@@@@@@@@@@",
"@@@@@@@@@@@@@@@@@@@@@@@@@@@@@@@@@@@@@@@@@@@@@@@@@@@@@@@@@@@@@@@@",
"@@@@@@@@@@@@@@@@@@@@@@@@@@@@@@@@@@@@@@@@@@@@@@@@@@@@@@@@@@@@@@@@",
"@@@@@@@@@@@@@@@@@@@@@@@@OO@@@@@@@@@@@@@@@@@@@@@@@@OO@@OO@@@@@@@@",
"@@@@@@@@@@@@@@@@@@@@@@@@OO@@@@@@@@@@@@@@@@@@@@@@@@OO@@OO@@@@@@@@",
"@@@@@@@@@@@@@@@@@@@@@@OO@@@@@@@@@@@@@@@@@@@@@@@@@@@@OO@@@@@@@@@@",
"@@@@@@@@@@@@@@@@@@@@@@OO@@@@@@@@@@@@@@@@@@@@@@@@@@@@OO@@@@@@@@@@",
"@@@@@@@@@@@@@@@@@@@@@@OO@@@@@@@@@@@@@@@@@@@@@@@@@@@@@@@@@@@@@@@@",
"@@@@@@@@@@@@@@@@@@@@@@OO@@@@@@@@@@@@@@@@@@@@@@@@@@@@@@@@@@@@@@@@",
"@@@@@@@@OO@@@@@@@@@@@@@@@@@@@@@@@@@@@@@@@@@@@@@@@@@@@@@@@@@@@@@@",
"@@@@@@@@OO@@@@@@@@@@@@@@@@@@@@@@@@@@@@@@@@@@@@@@@@@@@@@@@@@@@@@@",
"@@@@@@@@@@OO@@@@@@@@@@@@@@@@@@@@@@@@@@@@@@@@@@@@@@@@@@@@@@@@@@@@",
"@@@@@@@@@@OO@@@@@@@@@@@@@@@@@@@@@@@@@@@@@@@@@@@@@@@@@@@@@@@@@@@@",
"@@@@@@@@@@OO@@@@@@@@OO@@@@@@@@@@@@@@@@@@@@@@@@@@@@@@@@@@@@@@@@@@",
"@@@@@@@@@@OO@@@@@@@@OO@@@@@@@@@@@@@@@@@@@@@@@@@@@@@@@@@@@@@@@@@@",
"@@@@@@@@@@@@@@@@@@OO@@@@@@@@@@@@@@@@@@@@@@@@@@@@@@@@@@@@@@@@@@@@",
"@@@@@@@@@@@@@@@@@@OO@@@@@@@@@@@@@@@@@@@@@@@@@@@@@@@@@@@@@@@@@@@@",
"@@@@@@@@@@@@@@@@@@OO@@@@@@@@@@@@@@@@@@OO@@OO@@@@@@@@@@@@@@@@@@@@",
"@@@@@@@@@@@@@@@@@@OO@@@@@@@@@@@@@@@@@@OO@@OO@@@@@@@@@@@@@@@@@@@@",
"@@@@@@@@@@@@@@@@@@@@@@@@@@@@@@@@@@@@@@@@OO@@@@@@@@@@@@@@@@@@@@@@",
"@@@@@@@@@@@@@@@@@@@@@@@@@@@@@@@@@@@@@@@@OO@@@@@@@@@@@@@@@@@@@@@@",
"@@@@@@@@@@@@@@@@@@@@@@@@@@@@........@@@@@@@@@@@@@@@@@@@@@@@@@@@@",
"@@@@@@@@@@@@@@@@@@@@@@@@@@@@........@@@@@@@@@@@@@@@@@@@@@@@@@@@@",
"@@@@@@@@@@@@@@@@@@@@@@@@@@@@........@@@@@@@@@@@@@@@@@@@@@@@@@@@@",
"@@@@@@@@@@@@@@@@@@@@@@@@@@@@........@@@@@@@@@@@@@@@@@@@@@@@@@@@@",
"@@@@@@@@@@@@@@@@@@@@@@@@....%%%%%%%%....@@@@@@@@@@@@@@@@@@@@@@@@",
"@@@@@@@@@@@@@@@@@@@@@@@@....%%%%%%%%....@@@@@@@@@@@@@@@@@@@@@@@@",
"@@@@@@@@@@@@@@@@@@@@@@@@....%%%%%%%%....@@@@@@@@@@@@@@@@@@@@@@@@",
"@@@@@@@@@@@@@@@@@@@@@@@@....%%%%%%%%....@@@@@@@@@@@@@@@@@@@@@@@@",
"@@@@@@@@@@@@@@@@    ....%%%%%%%%%%%%####....    @@@@@@@@@@@@@@@@",
"@@@@@@@@@@@@@@@@    ....%%%%%%%%%%%%####....    @@@@@@@@@@@@@@@@",
"@@@@@@@@@@@@@@@@    ....%%%%%%%%%%%%####....    @@@@@@@@@@@@@@@@",
"@@@@@@@@@@@@@@@@    ....%%%%%%%%%%%%####....    @@@@@@@@@@@@@@@@",
"@@@@@@@@@@@@    oooo....%%%%%%%%%%%%####....oooo    @@@@@@@@@@@@",
"@@@@@@@@@@@@    oooo....%%%%%%%%%%%%####....oooo    @@@@@@@@@@@@",
"@@@@@@@@@@@@    oooo....%%%%%%%%%%%%####....oooo    @@$$@@$$@@@@",
"@@@@@@@@@@@@    oooo....%%%%%%%%%%%%####....oooo    @@$$@@$$@@@@",
"@@@@@@@@    ++++++++    %%%%%%%%%%%%####    ++++++++    $$@@@@@@",
"@@@@@@@@    ++++++++    %%%%%%%%%%%%####    ++++++++    $$@@@@@@",
"@@@@@@@@    ++++++++    %%%%%%%%%%%%####    ++++++++    @@@@@@@@",
"@@@@@@@@    ++++++++    %%%%%%%%%%%%####    ++++++++    @@@@@@@@",
"@@@@@@@@    oooo++++++++                ++++++++oooo    @@@@@@@@",
"@@@@@@@@    oooo++++++++                ++++++++oooo    @@@@@@@@",
"@@@@@@$$    oooo++++++++                ++++++++oooo    @@@@@@@@",
"@@@@@@$$    oooo++++++++                ++++++++oooo    @@@@@@@@",
"@@@@@@@@    XXXXooooooooooooooooooooooooooooooooXXXX    @@@@@@@@",
"@@@@@@@@    XXXXooooooooooooooooooooooooooooooooXXXX    @@@@@@@@",
"@@@@@@@@    XXXXooooooooooooooooooooooooooooooooXXXX    @@@@@@@@",
"@@@@@@@@    XXXXooooooooooooooooooooooooooooooooXXXX    @@@@@@@@",
"@@@@@@@@$$@@    XXXXXXXXooooooooooooXXXXXXXXoooo    @@@@@@@@@@@@",
"@@@@@@@@$$@@    XXXXXXXXooooooooooooXXXXXXXXoooo    @@@@@@@@@@@@",
"@@@@@@@@@@@@    XXXXXXXXooooooooooooXXXXXXXXoooo    @@@@@@@@@@@@",
"@@@@@@@@@@@@    XXXXXXXXooooooooooooXXXXXXXXoooo    @@@@@@@@@@@@",
"@@@@@@@@@@@@@@@@                                @@@@@@@@@@@@@@@@",
"@@@@@@@@@@@@@@@@                                @@@@@@@@@@@@@@@@",
"@@@@@@@@@@@@@@@@                                @@@@@@@@@@@@@@@@",
"@@@@@@@@@@@@@@@@                                @@@@@@@@@@@@@@@@",
"@@@@@@@@@@@@@@@@@@@@@@@@@@@@@@@@@@@@@@@@@@@@@@@@@@@@@@@@@@@@@@@@",
"@@@@@@@@@@@@@@@@@@@@@@@@@@@@@@@@@@@@@@@@@@@@@@@@@@@@@@@@@@@@@@@@",
"@@@@@@@@@@@@@@@@@@@@@@@@@@@@@@@@@@@@@@@@@@@@@@@@@@@@@@@@@@@@@@@@",
"@@@@@@@@@@@@@@@@@@@@@@@@@@@@@@@@@@@@@@@@@@@@@@@@@@@@@@@@@@@@@@@@"
};
