/* XPM */
static char *_430d17b585744a1ba62683f161c34d2KUAraN8ReflYrmNa[] = {
/* columns rows colors chars-per-pixel */
"64 64 17 1 ",
"  c #6B4B5B",
". c #754C60",
"X c #90625D",
"o c #AA7959",
"O c #67835C",
"+ c #78A158",
"@ c #8DB15D",
"# c #B68962",
"$ c #C49A6C",
"% c #A4C263",
"& c #B7C973",
"* c #C0D470",
"= c #DCB98A",
"- c #E8CFA6",
"; c #DDE2A6",
": c #E8EEAA",
"> c #F3E5C2",
/* pixels */
"****************************XXXXXXXX****************************",
"************************XXXX========XXXX************************",
"************************XXXX========XXXX************************",
"********************XXXX================XXXX********************",
"****************XXXX========++++++++========XXXX****************",
"************XXXX========++++*%%%%%%*++++========XXXX************",
"************XXXX========++++*%%%%%%*++++========XXXX**%%********",
"********XXXX========++++%@@+*%%%%%%*+@@%++++========XXXX********",
"*******X========+++++***%@@+%@@@@@@%+@@%***+++++========X*******",
"*******X====++++%%%@+***%@@+*%%%%%%*+@@%***+@%%%++++====X*******",
"*******X====++++%%%@+***%@@+*%%%%%%*+@@%***+@%%%++++====X*******",
"*******X$+++@++**%%@+%%%%@@+*%%%%%%*+@@%%%%+@%%**++@+++$X*******",
"********XOO%@++**%%@+***%@@+%@@@@@@%+@@%***+@%%**++@%OOX********",
"********%OO%@++%%%%@+***%@@+*%%%%%%*+@@%***+@%%%%++@%OO*********",
"*********OO%@++%%%%@+***%@@+*%%%%%%*+@@%***+@%%%%++@%OO*********",
"*********OO%@++**%%@+%%%%@@+*%%%%%%*+@@%%%%+@%%**++@%OO*********",
"*********OO%@++**%%@+***%@@+oooooooo+@@%***+@%%**++@%OO*********",
"*********OO%@++%%%%@+***oooo--------oooo***+@%%%%++@%OO*********",
"*********OO%@++%%%%@+***oooo--------oooo***+@%%%%++@%OO*********",
"*********OO%@++**%%@oooo---->>>>>>>>----oooo@%%**++@%OO*********",
"*********OO%@++*oooo---->>>>========>>>>----oooo*++@%OO*********",
"*********OO%oooo---->>>>================>>>>----oooo%OO*********",
"*********OO%oooo---->>>>================>>>>----oooo%OO*********",
"********oooo---->>>>========XXXXXXXX========>>>>----oooo********",
"*******o---->>>>========XXXXXXXXXXXXXXXX========>>>>----o*******",
"*******o>>>>========XXXXXXXXXXXXXXXXXXXXXXXX========>>>>o*******",
"*******o>>>>========XXXXXXXXXXXXXXXXXXXXXXXX========>>>>o*******",
"*******X========XXXXXXXXXXXXXXXXXXXXXXXXXXXXXXXX========X*******",
"*******X====XXXXooooooooooooooooooooooooooooooooXXXX====X*******",
"********XXXX#$$$$$$$$$$$$$$$$$$$$$$$$$$$$$$$$$$$$$$#XXXX********",
"********XXXX#$$$$$$$$$$$$$$$$$$$$$$$$$$$$$$$$$$$$$$#XXXX********",
"***********.$$$$$$$$$$$$$$$$$$$$$$$$$$$$$$$$$$$$$$$$ ***********",
"***********.oooooooooooooooooooooooooooooooooooooooo.***********",
"***********.$$$$$$$$$$$$$$$$$$$$$$$$$$$$$$$$$$$$$$$$.***********",
"***********.$$$$$$$$$$$$$$$$$$$$$$$$$$$$$$$$$$$$$$$$.***********",
"***********.$$$$$$$$$$$$$$$$$$$$$$$$$$$$$$$$$$$$$$$$.***********",
"***********.$$$$....$$$$$$$$$$$$$$$$$$$$$$$$....$$$$.***********",
"***********.ooo.XXXX.ooooooo........ooooooo.XXXX.ooo.***********",
"***********.ooo.XXXX.ooooooo........ooooooo.XXXX.ooo.*::**::****",
"***********.$$$.XXXX.$$$$$$.XXXXXXXX.$$$$$$.XXXX.$$$.*::**::****",
"***********.$$$.XXXX.$$$$..XXXXXXXXXX..$$$$.XXXX.$$$.***::******",
"***********.$$$.$$$$.$$$$..XXXXXXXXXX..$$$$.$$$$.$$$.***::******",
"***********.$$$.$$$$.$$$$..XXXXXXXXXX..$$$$.$$$$.$$$.***********",
"***********.oooo====ooooo..XXXXXXXXXX..ooooo====oooo.***********",
"***********.$$$$$$$$$$$$$..XXXXXXXXXX..$$$$$$$$$$$$$.***********",
"***********.$$$$$$$$$$$$$..XXXXXXXXXX..$$$$$$$$$$$$$.***********",
"******::***.$$$$$$$$$$$$$..XXXXXXXXXX..$$$$$$$$$$$$$.***********",
"******::***.$$$$$$$$$$$$$..XooooooooX..$$$$$$$$$$$$$.***********",
"********::**...............o$$$$$$$$o...............************",
"********::**;;&.###.&&&&&&&X$######$X&&&&&&&.###.&&&************",
"********::**&&&.###.;;&&&&&X$######$X&&&&&&&.###.&&&************",
"********::**&&&.$$$.;;&&&&&X$$$$$$$$X&&&&&&&.$$$.&&&************",
"********::**&&&.$$$.&&;;&&&X$######$X&&&;;&&.$$$.&&&************",
"********::**&&&.$$$.&&;;&&&X$$$$$$$$X&&&;;&&.$$$.&&&************",
"************&&&.$$$.&&;;&&&X$$$$$$$$X&&&&&;;.$$$.&&&************",
"************&&&.$$$.&&;;&&&X$######$X&&&&&;;.$$$.&&&************",
"*************&&.$$$.&&;;&&&X$$$$$$$$X&&&&&&&.$$$.&&*************",
"***************&...&&&;;&&&X$######$X&&&&&&&&...&***************",
"***************&...&&&&&&&&X$######$X&&&&&&&&...&***************",
"*************************&&X$$$$$$$$X&&*************************",
"*************************&&X$######$X&&*************************",
"*************************&&X$$$$$$$$X&&*************************",
"*************************&&X$$$$$$$$X&&*************************",
"***************************&XXXXXXXX&***************************"
};
