/* XPM */
static char *_a0e18990b7f409a878e1038ccc05f6bJJEtbNrgdyS2ltvJ[] = {
/* columns rows colors chars-per-pixel */
"64 64 12 1 ",
"  c #754C60",
". c #90625D",
"X c #C49A6C",
"o c #A4C263",
"O c #B7C973",
"+ c #D4C169",
"@ c #C0D470",
"# c #C58086",
"$ c #E8CFA6",
"% c #DDE2A6",
"& c #E8EEAA",
"* c #F3F2C0",
/* pixels */
"@@@@@@@@@@@@@@@@@@@@@@@@@@@@@@@@@@@@@@@@@@@@@@@@@@@@@@@@@@@@@@@@",
"@@@@@@@@@@@@@@@@@@@@@@@@@@@@@@@@@@@@@@@@@@@@@@@@@@@@@@@@@@@@@@@@",
"@@@@@@@@@@@@@@@@@@@@@@@@@@@@@@@@@@@@@@@@@@@@@@@@@@@@@@@@@@@@@@@@",
"@@@@@@@@@@@@@@@@@@@@@@@@@@@@@@@@@@@@@@@@@@@@@@@@@@@@@@@@@@@@@@@@",
"@@@@@@@@@@@@@@@@@@@@@@@@@@@@@@@@@@@@@@@@@@@@@@@@@@@@@@@@@@@@@@@@",
"@@@@@@@@@@@@@@@@@@@@@@@@@@@@@@@@@@@@@@@@@@@@@@@@@@@@@@@@@@@@@@@@",
"@@@@@@@@@@@@@@@@@@@@@@@@oo@@@@@@@@@@@@@@@@@@@@@@@@oo@@oo@@@@@@@@",
"@@@@@@@@@@@@@@@@@@@@@@@@oo@@@@@@@@@@@@@@@@@@@@@@@@oo@@oo@@@@@@@@",
"@@@@@@@@@@@@@@@@@@@@@@oo@@@@@@@@@@@@@@@@@@@@@@@@@@@@oo@@@@@@@@@@",
"@@@@@@@@@@@@@@@@@@@@@@oo@@@@@@@@@@@@@@@@@@@@@@@@@@@@oo@@@@@@@@@@",
"@@@@@@@@@@@@@@@@@@@@@@oo@@@@@@@@@@@@@@@@@@@@@@@@@@@@@@@@@@@@@@@@",
"@@@@@@@@@@@@@@@@@@@@@@oo@@@@@@@@@@@@@@@@@@@@@@@@@@@@@@@@@@@@@@@@",
"@@@@@@@@oo@@@@@@@@@@@@@@............@@@@@@@@@@@@@@@@@@@@@@@@@@@@",
"@@@@@@@@oo@@@@@@@@@@@@@@............@@@@@@@@@@@@@@@@@@@@@@@@@@@@",
"@@@@@@@@@@oo@@@@@@@@@@@@............@@@@@@@@@@@@@@@@@@@@@@@@@@@@",
"@@@@@@@@@@oo@@@@@@@@@@@@............@@@@@@@@@@@@@@@@@@@@@@@@@@@@",
"@@@@@@@@@@oo@@@@@@@@....############....@@@@@@@@@@@@@@@@@@@@@@@@",
"@@@@@@@@@@oo@@@@@@@@....############....@@@@@@@@@@@@@@@@@@@@@@@@",
"@@@@@@@@@@@@@@@@@@oo....############....@@@@@@@@@@@@@@@@@@@@@@@@",
"@@@@@@@@@@@@@@@@@@oo....############....@@@@@@@@@@@@@@@@@@@@@@@@",
"@@@@@@@@@@@@@@@@....********************....@@@@@@@@@@@@@@@@@@@@",
"@@@@@@@@@@@@@@@@....********************....@@@@@@@@@@@@@@@@@@@@",
"@@@@@@@@@@@@@@@@....********************....@@@@@@@@@@@@@@@@@@@@",
"@@@@@@@@@@@@@@@@....********************....@@@@@@@@@@@@@@@@@@@@",
"@@@@@@@@@@@@....************    ********    ....@@@@@@@@@@@@@@@@",
"@@@@@@@@@@@@....************    ********    ....@@@@@@@@@@@@@@@@",
"@@@@@@@@@@@@....************    ********    ....@@@@@@@@@@@@@@@@",
"@@@@@@@@@@@@....************    ********    ....@@@@@@@@@@@@@@@@",
"@@@@@@@@@@@@....********************++++++++....@@@@@@@@@@@@@@@@",
"@@@@@@@@@@@@....********************++++++++....@@@@@@@@@@@@@@@@",
"@@@@@@@@@@@@....********************++++++++....@@@@@@@@@@@@@@@@",
"@@@@@@@@@@@@....********************++++++++....@@@@@@@@@@@@@@@@",
"@@@@@@@@....********************************....@@@@@@@@@@@@@@@@",
"@@@@@@@@....********************************....@@@@@@@@@@@@@@@@",
"@@@@@@@@....********************************....@@@@@@@@@@@@@@@@",
"@@@@@@@@....********************************....@@@@@@@@@@@@@@@@",
"@@@@....************************************....@@@@@@@@@@@@@@@@",
"@@@@....************************************....@@@@@@@@@@@@@@@@",
"@@@@....************************************....@@@@@@&&@@&&@@@@",
"@@@@....************************************....@@@@@@&&@@&&@@@@",
"@@@@....$$$$************XXXX************$$$$....@@@@@@@@&&@@@@@@",
"@@@@....$$$$************XXXX************$$$$....@@@@@@@@&&@@@@@@",
"@@@@....$$$$************XXXX************$$$$....@@@@@@@@@@@@@@@@",
"@@@@....$$$$************XXXX************$$$$....@@@@@@@@@@@@@@@@",
"@@@@....XXXXXXXXXXXXXXXX$$$$$$$$$$$$$$$$$$$$....@@@@@@@@@@@@@@@@",
"@@@@....XXXXXXXXXXXXXXXX$$$$$$$$$$$$$$$$$$$$....@@@@@@@@@@@@@@@@",
"@@@@....XXXXXXXXXXXXXXXX$$$$$$$$$$$$$$$$$$$$....@@@@@@@@@@@@@@@@",
"@@@@....XXXXXXXXXXXXXXXX$$$$$$$$$$$$$$$$$$$$....@@@@@@@@@@@@@@@@",
"@@@@....++++++++....................++++++++....@@@@@@@@@@@@@@@@",
"@@@@....++++++++....................++++++++....@@@@@@@@@@@@@@@@",
"@@@@....++++++++....................++++++++....@@@@@@@@@@@@@@@@",
"@@@@....++++++++....................++++++++....@@@@@@@@@@@@@@@@",
"OOOOOOOO........OOOOOO%%OOOOOOOOOOOO........%%OOOOOO@@@@@@@@@@@@",
"OOOOOOOO........OOOOOO%%OOOOOOOOOOOO........%%OOOOOO@@@@@@@@@@@@",
"OOOOOOOO........OOOOOO%%OOOOOOOOOOOO........OOOOOOOO@@@@@@@@@@@@",
"OOOOOOOO........OOOOOO%%OOOOOOOOOOOO........OOOOOOOO@@@@@@@@@@@@",
"@@@@OOOOOOOOOOOOOOOOOO%%OOOOOOOOOOOOOOOOOOOOOOOO@@@@@@@@@@@@@@@@",
"@@@@OOOOOOOOOOOOOOOOOO%%OOOOOOOOOOOOOOOOOOOOOOOO@@@@@@@@@@@@@@@@",
"@@@@OOOOOOOOOOOOOOOOOOOOOOOOOOOOOOOOOOOOOOOOOOOO@@@@@@@@@@@@@@@@",
"@@@@OOOOOOOOOOOOOOOOOOOOOOOOOOOOOOOOOOOOOOOOOOOO@@@@@@@@@@@@@@@@",
"@@@@@@@@@@@@@@@@@@@@@@@@@@@@@@@@@@@@@@@@@@@@@@@@@@@@@@@@@@@@@@@@",
"@@@@@@@@@@@@@@@@@@@@@@@@@@@@@@@@@@@@@@@@@@@@@@@@@@@@@@@@@@@@@@@@",
"@@@@@@@@@@@@@@@@@@@@@@@@@@@@@@@@@@@@@@@@@@@@@@@@@@@@@@@@@@@@@@@@",
"@@@@@@@@@@@@@@@@@@@@@@@@@@@@@@@@@@@@@@@@@@@@@@@@@@@@@@@@@@@@@@@@"
};
