/* XPM */
static char * win_xpm[] = {
"64 64 24 1",
" 	c #C0D470",
".	c #90625D",
"+	c #DCB98A",
"@	c #78A158",
"#	c #A4C263",
"$	c #8DB15D",
"%	c #C49A6C",
"&	c #67835C",
"*	c #AA7959",
"=	c #E8CFA6",
"-	c #F3E5C2",
";	c #B68962",
">	c #754C60",
",	c #6B4B5B",
"'	c #E8EEAA",
")	c #C58086",
"!	c #F3F2C0",
"~	c #D4C169",
"{	c #957A4B",
"]	c #BFA954",
"^	c #714B65",
"/	c #DDE2A6",
"(	c #B7C973",
"_	c #B09643",
"                            ........                            ",
"                        ....++++++++....                        ",
"                        ....++++++++....                        ",
"                    ....++++++++++++++++....                    ",
"                ....++++++++@@@@@@@@++++++++....                ",
"            ....++++++++@@@@ ###### @@@@++++++++....            ",
"            ....++++++++@@@@ ###### @@@@++++++++....  ##        ",
"        ....++++++++@@@@#$$@ ###### @$$#@@@@++++++++....        ",
"       .++++++++@@@@@   #$$@#$$$$$$#@$$#   @@@@@++++++++.       ",
"       .++++@@@@###$@   #$$@ ###### @$$#   @$###@@@@++++.       ",
"       .++++@@@@###$@   #$$@ ###### @$$#   @$###@@@@++++.       ",
"       .%@@@$@@  ##$@####$$@ ###### @$$####@$##  @@$@@@%.       ",
"        .&&#$@@  ##$@   #$$@#$$$$$$#@$$#   @$##  @@$#&&.        ",
"        #&&#$@@####$@   #$$@ ###### @$$#   @$####@@$#&&         ",
"         &&#$@@####$@   #$$@ ###### @$$#   @$####@@$#&&         ",
"         &&#$@@  ##$@####$$@ ###### @$$####@$##  @@$#&&         ",
"         &&#$@@  ##$@   #$$@********@$$#   @$##  @@$#&&         ",
"         &&#$@@####$@   ****========****   @$####@@$#&&         ",
"         &&#$@@####$@   ****========****   @$####@@$#&&         ",
"         &&#$@@  ##$****====--------====****$##  @@$#&&         ",
"         &&#$@@ ****====----++++++++----====**** @@$#&&         ",
"         &&#****====----++++++++++++++++----====****#&&         ",
"         &&#****====----++++++++++++++++----====****#&&         ",
"        ****====----++++++++........++++++++----====****        ",
"       *====----++++++++................++++++++----====*       ",
"       *----++++++++........................++++++++----*       ",
"       *----++++++++........................++++++++----*       ",
"       .++++++++................................++++++++.       ",
"       .++++....********************************....++++.       ",
"        ....;%%%%%%%%%%%%%%%%%%%%%%%%%%%%%%%%%%%%%%;....        ",
"        ....;%%%%%%%%%%%%%%%%%%%%%%%%%%%%%%%%%%%%%%;....        ",
"           >%%%%%%%%%%%%%%%%%%%%%%%%%%%%%%%%%%%%%%%%,           ",
"           >****************************************>           ",
"           >%%%%%%%%%%%%%%%%%%%%%%%%%%%%%%%%%%%%%%%%>           ",
"           >%%%%%%%%%%%%%%%%%%%%%%%%%%%%%%%%%%%%%%%%>           ",
"           >%%%%%%%%%%%%%%%%%%%%%%%%%%%%%%%%%%%%%%%%>           ",
"           >%%%%>>>>%%%%%%%%%%%%%%%%%%%%%%%%>>>>%%%%>           ",
"           >***>....>*******>>>>>>>>*******>....>***>           ",
"           >***>....>*******>>>...>>*******>....>***> ''  ''    ",
"           >%%%>....>%%%%%%>...)))..>%%%%%%>....>%%%> ''  ''    ",
"           >%%%>....>%%%%>>...!!!!!..>>%%%%>....>%%%>   ''      ",
"           >%%%>%%%%>%%%%>>..!!!>!!>.>>%%%%>%%%%>%%%>   ''      ",
"           >%%%>%%%%>%%%%>>..!!!!!~~.>>%%%%>%%%%>%%%>           ",
"           >****++++*****>>.!!!!!!!!.>>*****++++****>           ",
"           >%%%%%%%%%%%%%>.!!!!..!!!.>>%%%%%%%%%%%%%>           ",
"           >%%%%%%%%%%%%%>.=!!.!!.!=.>>%%%%%%%%%%%%%>           ",
"      ''   >%%%%%%%%%%%%%>.%{.!!!=.{.>>%%%%%%%%%%%%%>           ",
"      ''   >%%%%%%%%%%%%%>.{].!!!=.]{>>%%%%%%%%%%%%%>           ",
"        ''  >>>>>>>>>>>>>^{~~{!!!={~~{>>>>>>>>>>>>>>            ",
"        ''  //(>;;;>(((((({]~~{{{{~~]{((((((>;;;>(((            ",
"        ''  (((>;;;>//(((({_]]]]]]]]_{((((((>;;;>(((            ",
"        ''  (((>%%%>//((((({__]]]__]{(((((((>%%%>(((            ",
"        ''  (((>%%%>((//(((.{{{{{{{{.(((//((>%%%>(((            ",
"        ''  (((>%%%>((//(((.%%%%%%%%.(((//((>%%%>(((            ",
"            (((>%%%>((//(((.%%%%%%%%.(((((//>%%%>(((            ",
"            (((>%%%>((//(((.%;;;;;;%.(((((//>%%%>(((            ",
"             ((>%%%>((//(((.%%%%%%%%.(((((((>%%%>((             ",
"               (>>>(((//(((.%;;;;;;%.((((((((>>>(               ",
"               (>>>((((((((.%;;;;;;%.((((((((>>>(               ",
"                         ((.%%%%%%%%.((                         ",
"                         ((.%;;;;;;%.((                         ",
"                         ((.%%%%%%%%.((                         ",
"                         ((.%%%%%%%%.((                         ",
"                           (........(                           "};
